<svg version="1.1" id="Слой_1" xmlns="http://www.w3.org/2000/svg" x="0" y="0" viewBox="0 0 1000 1000" xml:space="preserve"><style>.st0{fill:#fff}</style><path class="st0" d="M139.06 255.71s288.5-197.66 582.15-65.68L943.9 81.98S415.43-189.55 139.06 255.71z"/><linearGradient id="SVGID_1_" gradientUnits="userSpaceOnUse" x1="338.449" y1="-35.45" x2="481.961" y2="108.062" gradientTransform="rotate(45.001 388.014 268.401)"><stop offset="0" stop-color="#3bbdee"/><stop offset="1" stop-color="#5067ae"/></linearGradient><path d="M191.74 225.33s234.54-126.7 529.46-35.3L943.9 81.98S506.74-122.25 191.74 225.33z" fill="url(#SVGID_1_)"/><path class="st0" d="M920.21 229.81s40.01 341-219.89 528.32l-9.3 241.87c-.01 0 498.41-320.81 229.19-770.19z"/><linearGradient id="SVGID_2_" gradientUnits="userSpaceOnUse" x1="836.084" y1="281.67" x2="1108.763" y2="178.244" gradientTransform="rotate(45.001 388.014 268.401)"><stop offset="0" stop-color="#5067ae"/><stop offset=".835" stop-color="#3eb1e6"/></linearGradient><path d="M922.36 289.34s1.85 260.92-222.05 468.79l-9.3 241.87s393.91-275.15 231.35-710.66z" fill="url(#SVGID_2_)"/><path class="st0" d="M564.95 911.92S242.8 771.81 209.33 458.89L0 327.96s30.18 580.55 564.95 583.96z"/><linearGradient id="SVGID_3_" gradientUnits="userSpaceOnUse" x1="494.045" y1="716.385" x2="560.153" y2="519.109" gradientTransform="rotate(45.001 388.014 268.401)"><stop offset="0" stop-color="#3bbdee"/><stop offset=".742" stop-color="#5067ae"/></linearGradient><path d="M511.16 883.41S279.3 752.12 209.32 458.88L0 327.96s42.98 469.82 511.16 555.45z" fill="url(#SVGID_3_)"/><radialGradient id="SVGID_4_" cx="638.057" cy="334.863" r="78.681" gradientTransform="scale(2.0151 1.9598) rotate(45 569.483 -156.204)" gradientUnits="userSpaceOnUse"><stop offset="0" stop-color="#3eb1e6"/><stop offset=".351" stop-color="#3eb0e5"/><stop offset=".516" stop-color="#3face2"/><stop offset=".642" stop-color="#41a5dd"/><stop offset=".748" stop-color="#439ad5"/><stop offset=".842" stop-color="#478ccb"/><stop offset=".926" stop-color="#4c7bbe"/><stop offset="1" stop-color="#5067ae"/></radialGradient><ellipse cx="545.56" cy="469.39" rx="158.55" ry="154.2" fill="url(#SVGID_4_)"/></svg>